<svg xmlns="http://www.w3.org/2000/svg" viewBox="0 0 566.93 566.93"><defs><style>.cls-1{fill:#e6e6e6;}</style></defs><g id="_7" data-name="7"><path class="cls-1" d="M455,208.63c-2.89-1.69-66.69-46.15-66.69-46.15H334.37c-8.36,18.27-25.51,34.83-52,34.83-25.52,0-43.64-16.56-52-34.83H188S134,198,128.94,201.65c-4.82,3.53-4.66,7.86-1.61,12.84,0,0,12.52,18,15.09,21.5.52-.13,44.23-30.38,61-42V396.82h184.9V216.21c16.14,10.89,46,30.46,46.71,30.46,1,0,8.66-1.21,9.87-1.93S461,216.81,461,215.13,457.89,210.31,455,208.63Z"/><path d="M194.31,407.13a18.58,18.58,0,0,1-18.58-18.58h0V226.86l-33.51,22.68a16.73,16.73,0,0,1-9.36,2.86h0A16.71,16.71,0,0,1,119,245h0l-22.54-33.3a16.65,16.65,0,0,1-2.89-9.39h0a16.77,16.77,0,0,1,7.36-13.88h0l78.83-53.35H254.9l-.1,5.89c0,.3,0,.5,0,.59h0A28.33,28.33,0,0,0,283,169.79h0a28.34,28.34,0,0,0,28.28-28.17h0c0-.09,0-.3,0-.61h0l-.11-5.89h81.23l78.88,53.37-3.24,4.79,3.24-4.79a16.77,16.77,0,0,1,7.35,13.89h0a16.76,16.76,0,0,1-2.87,9.37h0l-22.56,33.32a16.76,16.76,0,0,1-13.87,7.35h0a16.63,16.63,0,0,1-9.37-2.88h0l-33.54-22.69v161.7a18.59,18.59,0,0,1-18.59,18.58H194.31Zm-7-18.58a7,7,0,0,0,7,7H377.84a7.05,7.05,0,0,0,7-7h0V205.08L436.44,240a5.11,5.11,0,0,0,2.9.88h0a5.21,5.21,0,0,0,4.31-2.27h0l22.55-33.31a5.15,5.15,0,0,0,.89-2.9h0a5.19,5.19,0,0,0-2.29-4.32h0l-75.93-51.38H322.55A39.86,39.86,0,0,1,283,181.34h0a39.84,39.84,0,0,1-39.49-34.68h0l-60.27,0L107.39,198a5.19,5.19,0,0,0-2.28,4.31h0a5,5,0,0,0,.89,2.9h0l22.56,33.32a5.15,5.15,0,0,0,4.3,2.28h0a5.17,5.17,0,0,0,2.9-.89h0l51.53-34.87V388.55Z"/></g></svg>