<svg xmlns="http://www.w3.org/2000/svg" viewBox="0 0 566.93 566.93"><defs><style>.a{fill:#fff;}.b{fill:#e6e6e6;}</style></defs><path class="a" d="M265.88,252.87l-11.63,67.26c.17,10.91.72,24.38.72,43.53,0,15-3.07,25.54-7.72,32.93-9,14.44-24.07,16.88-33.89,16.88-38.68,0-41.67-36-41.67-74.71a119.41,119.41,0,0,0-1.47-18.24l-13.36-50.91c-3.38-12.37-6-25-6-38.77,0-33.64,11.4-52.9,25.84-63.8,15.25-11.49,33.87-13.67,46.1-13.67,23.8,0,47,24.9,47,58.1A195.28,195.28,0,0,1,265.88,252.87Z"/><path class="b" d="M263.5,252.87l-11.62,67.26c.17,10.91.72,24.38.72,43.53,0,15-3.07,25.54-7.72,32.93-7.75,4.78-16.41,5.81-22.83,5.81-38.68,0-41.67-36-41.67-74.71a118.26,118.26,0,0,0-1.47-18.24l-13.36-50.91c-3.38-12.37-6-25-6-38.76,0-24.38,6-41.18,14.78-52.74,15.25-11.49,33.87-13.67,46.1-13.67,23.79,0,47,24.9,47,58.1A195.2,195.2,0,0,1,263.5,252.87Z"/><path d="M243.44,331.73a2.77,2.77,0,0,1,2.83,2.69c.2,8.26.4,17.62.4,29.24,0,10.68-1.69,19.42-5,26a2.77,2.77,0,0,1-2.47,1.51,2.68,2.68,0,0,1-1.25-.3,2.77,2.77,0,0,1-1.21-3.72c2.93-5.78,4.42-13.68,4.42-23.48,0-11.56-.2-20.87-.4-29.1a2.76,2.76,0,0,1,2.7-2.83Z"/><path d="M255.05,253.37a2.78,2.78,0,0,1-2.72-3.33,181.3,181.3,0,0,0,3.7-38.57c0-26.09-17.5-44.27-33.21-44.27a2.77,2.77,0,1,1,0-5.53c18.32,0,38.74,20.45,38.74,49.8a186.58,186.58,0,0,1-3.81,39.7A2.77,2.77,0,0,1,255.05,253.37Z"/><path class="a" d="M269.86,272.35c0,24.68-10,40.87-16.27,48.64a6.16,6.16,0,0,1-9,.67,6.09,6.09,0,0,1,.27-7.45c5.1-6.19,13.92-20.06,13.92-41.86,0-25.32-29.36-53.52-39.1-62.2-17.26,12.25-52.21,41.86-52.21,65,0,22.3,9.24,36.3,14.28,42.28a5.53,5.53,0,0,1-4.29,9,5.39,5.39,0,0,1-4.18-1.93C167,317,156.41,300.6,156.41,275.12c0-35.75,58.11-74.91,60.57-76.54a5.51,5.51,0,0,1,6.56.3,186.17,186.17,0,0,1,23.85,24C258.74,236.65,269.86,254.64,269.86,272.35Z"/><path class="a" d="M411,230.84c0,13.73-2.6,26.4-6,38.77l-13.36,50.91a118.16,118.16,0,0,0-1.47,18.24c0,25.26-1.27,49.33-12.87,63-6.19,7.33-15.33,11.68-28.8,11.68-9.82,0-24.88-2.44-33.9-16.88-4.65-7.39-7.72-17.93-7.72-32.93,0-19.15.56-32.62.72-43.53L296,252.87a195.28,195.28,0,0,1-4-41.4c0-24.54,12.7-44.54,28.94-53.32a38.17,38.17,0,0,1,18.1-4.78c12.23,0,30.85,2.18,46.09,13.67C399.58,177.94,411,197.2,411,230.84Z"/><path d="M222.82,150.6c-22.46,0-74.71,7.82-74.71,80.24,0,15.06,3.15,28.72,5.95,39a39,39,0,0,0-.41,5.26c0,21.89,7.6,37.35,13.92,46.42a116,116,0,0,1,1.35,17.22c0,30.85,0,77.47,44.44,77.47,16.57,0,44.38-6.83,44.38-52.57,0-13.09-.26-23.74-.47-32.3-.09-3.71-.18-7.09-.23-10.29,6.36-8.38,15.59-24.69,15.59-48.72a56.22,56.22,0,0,0-3.89-19.72,200.47,200.47,0,0,0,3.89-41.16C272.63,175.06,246.87,150.6,222.82,150.6Zm-69.17,80.24c0-65,43.34-74.71,69.17-74.71,21.38,0,44.27,22.24,44.27,55.34a201.41,201.41,0,0,1-2.34,32.21,129.6,129.6,0,0,0-15.22-22.54,186.32,186.32,0,0,0-24.22-24.38,8.46,8.46,0,0,0-9.86-.49c-2.16,1.44-45.83,30.74-58.41,62.61A128.09,128.09,0,0,1,153.65,230.84ZM213.36,410.7c-36,0-38.91-32.58-38.91-71.94,0-3.39-.17-6.82-.49-10.33a8.31,8.31,0,0,0,9.92-12.82c-5.09-6-13.63-19.33-13.63-40.49,0-20.25,30.13-47.51,49.25-61.42,10.42,9.54,36.53,35.77,36.53,58.65,0,20.82-8.33,34.07-13.28,40.09a8.86,8.86,0,0,0-.4,10.83,2.3,2.3,0,0,0,.36.41,9,9,0,0,0,6.66,2.37,8.8,8.8,0,0,0,2.22-.48c0,1.89.09,3.86.14,5.93.23,9,.48,19.14.48,32.16C252.21,402.54,231.08,410.7,213.36,410.7Zm38.09-91.45a3.46,3.46,0,0,1-2.45,1.28,3.38,3.38,0,0,1-2.3-.71A3.34,3.34,0,0,1,247,316c5.44-6.61,14.55-21.07,14.55-43.62,0-25.78-28-53.53-40-64.27a2.77,2.77,0,0,0-3.45-.19c-5.46,3.88-53.38,38.72-53.38,67.23,0,22.92,9.36,37.44,14.94,44.07a2.69,2.69,0,0,1-.08,3.52,2.72,2.72,0,0,1-2.1,1,2.67,2.67,0,0,1-2.06-.95c-6.06-7.24-16.23-23.06-16.23-47.61,0-34.49,58.74-73.84,59.35-74.25a2.76,2.76,0,0,1,3.29.18,185.08,185.08,0,0,1,23.44,23.61c14.28,17.32,21.83,33.81,21.83,47.69C267.09,296.37,257.29,312,251.45,319.25Z"/><path class="b" d="M411,230.84c0,13.73-2.6,26.4-6,38.77l-13.36,50.91a118.16,118.16,0,0,0-1.47,18.24c0,25.26-1.27,49.33-12.87,63a42.93,42.93,0,0,1-17.73,3.37c-9.83,0-24.88-2.43-33.9-16.87C321,380.9,318,370.36,318,355.36c0-19.15.55-32.62.72-43.53l-11.62-67.26a195.2,195.2,0,0,1-4-41.4c0-18.56,7.28-34.56,17.88-45a38.17,38.17,0,0,1,18.1-4.78c12.23,0,30.85,2.18,46.09,13.67C399.58,177.94,411,197.2,411,230.84Z"/><path d="M370.4,395.36a2.76,2.76,0,0,1-2.29-4.31c7.59-11.22,8.22-32.88,8.22-52.29a2.77,2.77,0,0,1,5.54,0c0,20.24-.71,42.88-9.18,55.39A2.77,2.77,0,0,1,370.4,395.36Z"/><path d="M399.91,233.61a2.77,2.77,0,0,1-2.77-2.77c0-24.82-6.84-42.57-20.33-52.75-11.94-9-27.13-10.89-37.77-10.89a2.77,2.77,0,1,1,0-5.53c11.48,0,27.93,2.08,41.1,12,15,11.29,22.54,30.52,22.54,57.17A2.77,2.77,0,0,1,399.91,233.61Z"/><path class="a" d="M292,272.35c0,24.68,10,40.87,16.27,48.64a6.16,6.16,0,0,0,9,.67,6.09,6.09,0,0,0-.28-7.45c-5.09-6.19-13.92-20.06-13.92-41.86,0-25.32,29.36-53.52,39.1-62.2,17.27,12.25,52.22,41.86,52.22,65,0,22.3-9.25,36.3-14.28,42.28a5.53,5.53,0,0,0,4.29,9,5.39,5.39,0,0,0,4.18-1.93c6.25-7.47,16.87-23.91,16.87-49.39,0-35.75-58.1-74.91-60.57-76.54a5.49,5.49,0,0,0-6.55.3,186.62,186.62,0,0,0-23.86,24C303.12,236.65,292,254.64,292,272.35Z"/><path d="M407.8,269.86c2.79-10.3,5.94-24,5.94-39,0-72.42-52.24-80.24-74.7-80.24-24.06,0-49.81,24.46-49.81,60.87a201.19,201.19,0,0,0,3.88,41.16,56.2,56.2,0,0,0-3.88,19.72c0,24,9.23,40.34,15.59,48.72-.06,3.2-.14,6.58-.23,10.29-.21,8.56-.47,19.21-.47,32.3,0,45.74,27.8,52.57,44.38,52.57,44.44,0,44.44-46.62,44.44-77.47a116,116,0,0,1,1.35-17.22c6.32-9.08,13.92-24.54,13.92-46.42A39,39,0,0,0,407.8,269.86Zm-113-58.39c0-33.1,22.89-55.34,44.28-55.34,25.83,0,69.17,9.71,69.17,74.71a128.7,128.7,0,0,1-3.39,28c-12.58-31.87-56.25-61.17-58.4-62.59a8.45,8.45,0,0,0-9.83.43,189.17,189.17,0,0,0-24.26,24.42,129,129,0,0,0-15.22,22.54A201.36,201.36,0,0,1,294.76,211.47ZM348.5,410.7c-17.72,0-38.85-8.16-38.85-47,0-13,.25-23.19.47-32.16.05-2.07.1-4,.15-5.93a8.72,8.72,0,0,0,2.21.48,8.94,8.94,0,0,0,6.67-2.37,3.52,3.52,0,0,0,.36-.41,8.84,8.84,0,0,0-.39-10.81c-5-6-13.29-19.29-13.29-40.11,0-22.88,26.11-49.11,36.53-58.65,19.12,13.91,49.25,41.17,49.25,61.42,0,21.16-8.54,34.45-13.62,40.48a8.31,8.31,0,0,0,6.4,13.61,8.29,8.29,0,0,0,3.5-.77c-.31,3.5-.49,6.93-.49,10.32C387.4,378.12,384.48,410.7,348.5,410.7Zm37.94-88a2.66,2.66,0,0,1-2.05.94,2.77,2.77,0,0,1-2.12-1,2.69,2.69,0,0,1-.06-3.52c5.58-6.62,14.93-21.14,14.93-44.06,0-28.51-47.91-63.35-53.38-67.23a2.77,2.77,0,0,0-3.44.19c-12,10.74-40,38.49-40,64.27,0,22.55,9.11,37,14.56,43.63a3.33,3.33,0,0,1,.3,3.84,3.26,3.26,0,0,1-2.3.71,3.46,3.46,0,0,1-2.45-1.28c-5.84-7.21-15.65-22.88-15.65-46.9,0-13.88,7.55-30.37,21.84-47.69A182,182,0,0,1,340.09,201a2.64,2.64,0,0,1,1.71-.6,2.7,2.7,0,0,1,1.54.48c.6.39,59.34,39.74,59.34,74.23C402.68,299.67,392.51,315.49,386.44,322.74Z"/></svg>