<svg xmlns="http://www.w3.org/2000/svg" viewBox="0 0 566.93 566.93"><defs><style>.cls-1{fill:#e6e6e6;}.cls-2,.cls-3,.cls-4{fill:none;stroke:#000;stroke-linecap:round;stroke-linejoin:round;}.cls-2{stroke-width:7px;}.cls-3{stroke-width:2px;}.cls-4{stroke-width:4px;}</style></defs><g id="_1" data-name="1"><path class="cls-1" d="M411.67,410.82h-104L286.1,276,270.79,410.82H173.26l5.68-83.6a389.35,389.35,0,0,1,7.16-52.33c5.12-25.09,7.65-49.61,17.6-73.19H381.23c9.94,23.58,12.48,48.1,17.6,73.19A391,391,0,0,1,406,327.22Z"/><rect class="cls-2" x="188.63" y="156.11" width="189.67" height="37.93"/><path class="cls-2" d="M410.82,410.82H299.72L283.46,291.59,269.92,410.82H156.11l6.07-86.66a393.81,393.81,0,0,1,7.64-54.24c5.48-26,8.19-51.43,18.81-75.87H378.3c10.62,24.44,13.33,49.85,18.81,75.87a393.81,393.81,0,0,1,7.64,54.24Z"/><path class="cls-2" d="M291.59,245.53V185.92a10.84,10.84,0,0,1,10.84-10.84h0"/><line class="cls-2" x1="302.43" y1="166.95" x2="302.43" y2="183.21"/><path class="cls-2" d="M275.34,245.53V185.92a10.84,10.84,0,0,0-10.84-10.84h0"/><line class="cls-2" x1="264.5" y1="166.95" x2="264.5" y2="183.21"/><circle class="cls-3" cx="283.46" cy="248.24" r="2.71"/><circle class="cls-4" cx="283.46" cy="248.24" r="2.71"/></g></svg>